<svg width="69" height="69" viewBox="0 0 69 69" fill="none" xmlns="http://www.w3.org/2000/svg">
<g id="Layer_1" clip-path="url(#clip0_124_4294)">
<path id="Vector (Stroke)" fill-rule="evenodd" clip-rule="evenodd" d="M34.5589 14.0975C23.2605 14.0975 14.1014 23.2566 14.1014 34.555C14.1014 45.8533 23.2605 55.0125 34.5589 55.0125C45.8572 55.0125 55.0164 45.8533 55.0164 34.555C55.0164 23.2566 45.8572 14.0975 34.5589 14.0975ZM12.4922 34.555C12.4922 22.3679 22.3718 12.4883 34.5589 12.4883C46.746 12.4883 56.6255 22.3679 56.6255 34.555C56.6255 46.7421 46.746 56.6216 34.5589 56.6216C22.3718 56.6216 12.4922 46.742 12.4922 34.555Z" fill="#EDEAE5"/>
<path id="Vector" d="M45.2897 40.5421L37.4687 26.9961L33.2812 29.4138L39.7064 40.5421H45.2897Z" fill="#EDEAE5"/>
<path id="Vector_2" d="M37.8406 40.5406L32.6789 31.6016L28.4922 34.0186L32.2573 40.5406H37.8406Z" fill="#EDEAE5"/>
<path id="Vector_3" d="M30.3943 40.5422L27.8984 36.2188L23.7109 38.6365L24.8117 40.5422H30.3943Z" fill="#EDEAE5"/>
<g id="Group">
<path id="Vector_4" d="M6.41538 20.2227L7.90666 20.9444L7.28035 22.2426L5.78906 21.5208L6.41538 20.2227Z" fill="#EDEAE5"/>
<path id="Vector_5" d="M11.4728 8.86719L17.9052 13.2123L16.764 14.2863L15.4209 13.3049L14.3289 14.3319L15.2329 15.7263L14.2153 16.6824L10.2969 9.97372L11.4707 8.87008L11.4721 8.86791L11.4728 8.86719ZM13.6071 13.3273L14.4583 12.526L12.7689 11.3413C12.3045 11.013 12.118 10.8467 11.7831 10.5241C11.9371 10.7374 12.2669 11.2054 12.4752 11.5258L13.6078 13.3288V13.3273H13.6071Z" fill="#EDEAE5"/>
<path id="Vector_6" d="M19.7543 3.3699C22.0643 2.30893 23.2431 4.11555 23.8962 5.5403C24.9101 7.74831 24.717 9.42402 23.1802 10.1306L21.2521 11.0166L18.0938 4.13435L19.7543 3.37135V3.3699ZM22.0794 9.17378L22.4917 8.9843C22.7491 8.86569 22.948 8.69935 23.0348 8.50986C23.22 8.12511 22.8164 7.13574 22.4468 6.33079C21.7511 4.81418 21.2608 4.1264 20.5296 4.46342L20.024 4.69558L22.0794 9.17451V9.17306V9.17378Z" fill="#EDEAE5"/>
<path id="Vector_7" d="M29.5965 0.40625L30.8317 7.87789L29.2985 8.13174L28.0625 0.660102L29.5972 0.40625H29.5957H29.5965Z" fill="#EDEAE5"/>
<path id="Vector_8" d="M37.5724 0.201204C40.1 0.465904 40.1948 2.62111 40.032 4.18039C39.7796 6.59668 38.7613 7.94043 37.0791 7.76469L34.9688 7.54411L35.7556 0.0117188L37.5724 0.201927V0.20048V0.201204ZM36.6191 6.38116L37.0704 6.42817C37.3532 6.4571 37.6078 6.41588 37.7806 6.29727C38.1365 6.06005 38.2927 5.00414 38.3845 4.12325C38.5588 2.46273 38.4851 1.62234 37.6852 1.53845L37.1319 1.48059L36.6199 6.38188L36.6191 6.38116Z" fill="#EDEAE5"/>
<path id="Vector_9" d="M49.3977 3.43982L47.8478 11.0489L46.4209 10.4045L46.8129 8.78807L45.4474 8.1726L44.5065 9.54167L43.2344 8.96743L47.9281 2.77734L49.397 3.43982H49.3977ZM46.0955 7.12031L47.1608 7.60125L47.6084 5.58635C47.7328 5.03236 47.8153 4.79514 47.9867 4.36121C47.8478 4.58613 47.5426 5.06997 47.3257 5.38312L46.0955 7.11886V7.12031Z" fill="#EDEAE5"/>
<path id="Vector_10" d="M57.7254 11.2274L56.519 10.8477C56.7852 10.356 56.796 9.91261 56.4547 9.61247C56.1393 9.33476 55.7647 9.39912 55.474 9.73253C55.1601 10.0905 55.1688 10.356 55.615 11.2918C56.2391 12.5951 55.9918 13.3747 55.393 14.0589C54.4347 15.1517 53.156 15.2826 52.0907 14.3467C51.144 13.515 51.0543 12.5148 51.7667 11.3424L52.981 11.8342C52.5999 12.5271 52.5709 12.9559 52.9897 13.3219C53.3658 13.651 53.7939 13.5757 54.1006 13.225C54.3783 12.9097 54.3804 12.5791 54.1635 12.1018C53.4309 10.4753 53.5357 9.73759 54.3132 8.84947C54.9503 8.12408 56.2941 7.65832 57.3175 8.55657C58.0674 9.21542 58.2692 10.0884 57.7246 11.2253V11.2274H57.7254Z" fill="#EDEAE5"/>
<path id="Vector_11" d="M63.0921 21.3009L61.6059 22.0343L60.9688 20.7412L62.455 20.0078L63.0921 21.3009Z" fill="#EDEAE5"/>
<path id="Vector_12" d="M7.56696 36.4399L6.23912 36.4334L6.24924 34.276L4.28641 34.2673L4.27918 35.9249L3.01932 35.9184L3.02655 34.2608L0.0078125 34.2471L0.0150447 32.6914L7.58359 32.7283L7.56624 36.4413V36.4399H7.56696Z" fill="#EDEAE5"/>
<path id="Vector_13" d="M6.23991 46.9691C3.67897 47.8651 2.35041 47.4999 1.82173 45.9884C1.26702 44.4023 2.35258 43.3124 4.80576 42.4547C7.30233 41.5818 8.66778 41.9463 9.19212 43.4462C9.71645 44.9462 8.8211 46.0665 6.23919 46.9698V46.9684L6.23991 46.9691ZM3.10835 45.5747C3.30651 46.1424 3.73755 46.1005 5.76114 45.3917C7.5504 44.7661 8.12391 44.4805 7.90695 43.8585C7.67479 43.1938 6.55018 43.5873 5.19991 44.0603C3.58206 44.6265 2.89138 44.952 3.10835 45.574V45.5747Z" fill="#EDEAE5"/>
<path id="Vector_14" d="M13.841 51.8577L10.0809 55.1635C9.33964 55.8159 9.25864 56.1876 9.61808 56.5977C9.93196 56.9557 10.2661 57.0251 11.1188 56.2759L14.8448 53.0004L15.7134 53.9897L11.9628 57.2877C10.4621 58.6061 9.46259 58.5179 8.51227 57.4337C7.39633 56.163 7.65742 55.2221 9.0988 53.955L12.8155 50.6875L13.8417 51.8555V51.857L13.841 51.8577Z" fill="#EDEAE5"/>
<path id="Vector_15" d="M21.8165 58.3504L21.3703 61.8277C21.3436 62.0309 21.2604 62.548 20.9971 63.4969C21.4904 62.3209 21.7609 61.7329 21.9048 61.4494L23.1343 59.0172L24.2589 59.5864L20.8445 66.3464L19.7199 65.7772L20.2001 61.6809C20.2529 61.2498 20.3412 60.7472 20.5017 60.1028C20.0757 61.1724 19.6975 61.9723 19.6252 62.1155L18.1715 64.9932L17.0469 64.424L20.4612 57.6641L21.818 58.3504L21.8165 58.3519V58.3504Z" fill="#EDEAE5"/>
<path id="Vector_16" d="M32.0902 61.4103C34.6273 61.5817 34.7994 63.7333 34.6938 65.2962C34.5297 67.7211 33.5605 69.1003 31.8747 68.9868L29.7578 68.8429L30.2684 61.2852L32.0917 61.4088L32.0902 61.4103ZM31.3641 67.6213L31.8168 67.6517C32.0996 67.6705 32.3542 67.6199 32.5213 67.494C32.8677 67.2438 32.9856 66.1821 33.0449 65.2991C33.157 63.6335 33.055 62.796 32.2508 62.7417L31.6961 62.7041L31.3648 67.6206V67.6221L31.3641 67.6213Z" fill="#EDEAE5"/>
<path id="Vector_17" d="M43.0881 60.1179L46.9219 66.8692L45.4226 67.3234L44.656 65.8473L43.2226 66.2812L43.4142 67.9316L42.0792 68.3366L41.5469 60.5851L43.0888 60.1172L43.0873 60.1186L43.0881 60.1179ZM43.0201 65.0626L44.1382 64.7234L43.151 62.9103C42.8812 62.4105 42.7865 62.1784 42.6303 61.7394C42.6729 61.999 42.7612 62.566 42.8053 62.9443L43.0194 65.0626H43.0201Z" fill="#EDEAE5"/>
<path id="Vector_18" d="M51.5903 55.4734L52.4112 56.6443L51.3712 57.3747L54.8962 62.404L53.624 63.2972L50.099 58.2679L49.0865 58.9781L48.2656 57.8072L51.5917 55.4727H51.5903V55.4734Z" fill="#EDEAE5"/>
<path id="Vector_19" d="M55.6968 51.1836L61.5181 56.0256L60.5244 57.2218L54.7031 52.3798L55.6968 51.1836Z" fill="#EDEAE5"/>
<path id="Vector_20" d="M63.8765 43.9801C66.3882 45.0034 67.1447 46.1577 66.5408 47.6403C65.908 49.1974 64.3719 49.2943 61.965 48.3136C59.5169 47.3156 58.7336 46.1389 59.3324 44.6664C59.9313 43.1939 61.3437 42.948 63.8765 43.9801ZM65.3027 47.0986C65.5298 46.541 65.179 46.2886 63.193 45.4786C61.4377 44.7633 60.8187 44.5963 60.5706 45.2074C60.3045 45.8597 61.4088 46.3089 62.733 46.8491C64.3205 47.4964 65.0539 47.7097 65.3027 47.0986Z" fill="#EDEAE5"/>
<path id="Vector_21" d="M61.4087 35.1708L64.703 33.9797C64.8961 33.9103 65.3937 33.7475 66.357 33.5479C65.0863 33.6477 64.4405 33.6745 64.123 33.6767L61.3993 33.694L61.3906 32.4334L68.9592 32.3828L68.9679 33.6434L65.1087 35.0877C64.7015 35.2381 64.2148 35.3893 63.5683 35.5404C64.7131 35.4305 65.5983 35.4016 65.7567 35.4016L68.9794 35.3799L68.9881 36.6404L61.4196 36.6911L61.4094 35.1694H61.408L61.4087 35.1708Z" fill="#EDEAE5"/>
</g>
</g>
<defs>
<clipPath id="clip0_124_4294">
<rect width="69" height="69" fill="white"/>
</clipPath>
</defs>
</svg>
